<svg width="189" height="52" viewBox="0 0 189 52" fill="none" xmlns="http://www.w3.org/2000/svg">
<path d="M72.296 34.168C71.176 34.168 70.168 33.976 69.272 33.592C68.376 33.192 67.672 32.632 67.16 31.912C66.648 31.192 66.392 30.352 66.392 29.392H69.32C69.384 30.112 69.664 30.704 70.16 31.168C70.672 31.632 71.384 31.864 72.296 31.864C73.24 31.864 73.976 31.64 74.504 31.192C75.032 30.728 75.296 30.136 75.296 29.416C75.296 28.856 75.128 28.4 74.792 28.048C74.472 27.696 74.064 27.424 73.568 27.232C73.088 27.04 72.416 26.832 71.552 26.608C70.464 26.32 69.576 26.032 68.888 25.744C68.216 25.44 67.64 24.976 67.16 24.352C66.68 23.728 66.44 22.896 66.44 21.856C66.44 20.896 66.68 20.056 67.16 19.336C67.64 18.616 68.312 18.064 69.176 17.68C70.04 17.296 71.04 17.104 72.176 17.104C73.792 17.104 75.112 17.512 76.136 18.328C77.176 19.128 77.752 20.232 77.864 21.64H74.84C74.792 21.032 74.504 20.512 73.976 20.08C73.448 19.648 72.752 19.432 71.888 19.432C71.104 19.432 70.464 19.632 69.968 20.032C69.472 20.432 69.224 21.008 69.224 21.76C69.224 22.272 69.376 22.696 69.68 23.032C70 23.352 70.4 23.608 70.88 23.8C71.36 23.992 72.016 24.2 72.848 24.424C73.952 24.728 74.848 25.032 75.536 25.336C76.24 25.64 76.832 26.112 77.312 26.752C77.808 27.376 78.056 28.216 78.056 29.272C78.056 30.12 77.824 30.92 77.36 31.672C76.912 32.424 76.248 33.032 75.368 33.496C74.504 33.944 73.48 34.168 72.296 34.168ZM84.4764 23.008V30.328C84.4764 30.824 84.5884 31.184 84.8124 31.408C85.0524 31.616 85.4524 31.72 86.0124 31.72H87.6924V34H85.5324C84.3004 34 83.3564 33.712 82.7004 33.136C82.0444 32.56 81.7164 31.624 81.7164 30.328V23.008H80.1564V20.776H81.7164V17.488H84.4764V20.776H87.6924V23.008H84.4764ZM95.9501 34.216C94.7021 34.216 93.5741 33.936 92.5661 33.376C91.5581 32.8 90.7661 32 90.1901 30.976C89.6141 29.936 89.3261 28.736 89.3261 27.376C89.3261 26.032 89.6221 24.84 90.2141 23.8C90.8061 22.76 91.6141 21.96 92.6381 21.4C93.6621 20.84 94.8061 20.56 96.0701 20.56C97.3341 20.56 98.4781 20.84 99.5021 21.4C100.526 21.96 101.334 22.76 101.926 23.8C102.518 24.84 102.814 26.032 102.814 27.376C102.814 28.72 102.51 29.912 101.902 30.952C101.294 31.992 100.462 32.8 99.4061 33.376C98.3661 33.936 97.2141 34.216 95.9501 34.216ZM95.9501 31.84C96.6541 31.84 97.3101 31.672 97.9181 31.336C98.5421 31 99.0461 30.496 99.4301 29.824C99.8141 29.152 100.006 28.336 100.006 27.376C100.006 26.416 99.8221 25.608 99.4541 24.952C99.0861 24.28 98.5981 23.776 97.9901 23.44C97.3821 23.104 96.7261 22.936 96.0221 22.936C95.3181 22.936 94.6621 23.104 94.0541 23.44C93.4621 23.776 92.9901 24.28 92.6381 24.952C92.2861 25.608 92.1101 26.416 92.1101 27.376C92.1101 28.8 92.4701 29.904 93.1901 30.688C93.9261 31.456 94.8461 31.84 95.9501 31.84ZM108.255 22.696C108.655 22.024 109.183 21.504 109.839 21.136C110.511 20.752 111.303 20.56 112.215 20.56V23.392H111.519C110.447 23.392 109.631 23.664 109.071 24.208C108.527 24.752 108.255 25.696 108.255 27.04V34H105.519V20.776H108.255V22.696ZM126.85 27.064C126.85 27.56 126.818 28.008 126.754 28.408H116.65C116.73 29.464 117.122 30.312 117.826 30.952C118.53 31.592 119.394 31.912 120.418 31.912C121.89 31.912 122.93 31.296 123.538 30.064H126.49C126.09 31.28 125.362 32.28 124.306 33.064C123.266 33.832 121.97 34.216 120.418 34.216C119.154 34.216 118.018 33.936 117.01 33.376C116.018 32.8 115.234 32 114.658 30.976C114.098 29.936 113.818 28.736 113.818 27.376C113.818 26.016 114.09 24.824 114.634 23.8C115.194 22.76 115.97 21.96 116.962 21.4C117.97 20.84 119.122 20.56 120.418 20.56C121.666 20.56 122.778 20.832 123.754 21.376C124.73 21.92 125.49 22.688 126.034 23.68C126.578 24.656 126.85 25.784 126.85 27.064ZM123.994 26.2C123.978 25.192 123.618 24.384 122.914 23.776C122.21 23.168 121.338 22.864 120.298 22.864C119.354 22.864 118.546 23.168 117.874 23.776C117.202 24.368 116.802 25.176 116.674 26.2H123.994ZM147.11 17.32V34H144.374V22.576L139.286 34H137.39L132.278 22.576V34H129.542V17.32H132.494L138.35 30.4L144.182 17.32H147.11ZM149.794 27.328C149.794 26 150.066 24.824 150.61 23.8C151.17 22.776 151.922 21.984 152.866 21.424C153.826 20.848 154.882 20.56 156.034 20.56C157.074 20.56 157.978 20.768 158.746 21.184C159.53 21.584 160.154 22.088 160.618 22.696V20.776H163.378V34H160.618V32.032C160.154 32.656 159.522 33.176 158.722 33.592C157.922 34.008 157.01 34.216 155.986 34.216C154.85 34.216 153.81 33.928 152.866 33.352C151.922 32.76 151.17 31.944 150.61 30.904C150.066 29.848 149.794 28.656 149.794 27.328ZM160.618 27.376C160.618 26.464 160.426 25.672 160.042 25C159.674 24.328 159.186 23.816 158.578 23.464C157.97 23.112 157.314 22.936 156.61 22.936C155.906 22.936 155.25 23.112 154.642 23.464C154.034 23.8 153.538 24.304 153.154 24.976C152.786 25.632 152.602 26.416 152.602 27.328C152.602 28.24 152.786 29.04 153.154 29.728C153.538 30.416 154.034 30.944 154.642 31.312C155.266 31.664 155.922 31.84 156.61 31.84C157.314 31.84 157.97 31.664 158.578 31.312C159.186 30.96 159.674 30.448 160.042 29.776C160.426 29.088 160.618 28.288 160.618 27.376ZM170.164 23.008V30.328C170.164 30.824 170.276 31.184 170.5 31.408C170.74 31.616 171.14 31.72 171.7 31.72H173.38V34H171.22C169.988 34 169.044 33.712 168.388 33.136C167.732 32.56 167.404 31.624 167.404 30.328V23.008H165.844V20.776H167.404V17.488H170.164V20.776H173.38V23.008H170.164ZM188.022 27.064C188.022 27.56 187.99 28.008 187.926 28.408H177.822C177.902 29.464 178.294 30.312 178.998 30.952C179.702 31.592 180.566 31.912 181.59 31.912C183.062 31.912 184.102 31.296 184.71 30.064H187.662C187.262 31.28 186.534 32.28 185.478 33.064C184.438 33.832 183.142 34.216 181.59 34.216C180.326 34.216 179.19 33.936 178.182 33.376C177.19 32.8 176.406 32 175.83 30.976C175.27 29.936 174.99 28.736 174.99 27.376C174.99 26.016 175.262 24.824 175.806 23.8C176.366 22.76 177.142 21.96 178.134 21.4C179.142 20.84 180.294 20.56 181.59 20.56C182.838 20.56 183.95 20.832 184.926 21.376C185.902 21.92 186.662 22.688 187.206 23.68C187.75 24.656 188.022 25.784 188.022 27.064ZM185.166 26.2C185.15 25.192 184.79 24.384 184.086 23.776C183.382 23.168 182.51 22.864 181.47 22.864C180.526 22.864 179.718 23.168 179.046 23.776C178.374 24.368 177.974 25.176 177.846 26.2H185.166Z" fill="#FA7275"/>
<rect opacity="0.2" width="48" height="48" rx="24" fill="#FA7275"/>
<rect x="21" y="20" width="32" height="32" rx="16" fill="#FA7275"/>
</svg>
